<!DOCTYPE svg PUBLIC "-//W3C//DTD SVG 1.1//EN" "http://www.w3.org/Graphics/SVG/1.1/DTD/svg11.dtd">
<!-- Uploaded to: SVG Repo, www.svgrepo.com, Transformed by: SVG Repo Mixer Tools -->
<svg width="256px" height="256px" viewBox="-102.4 -102.4 1228.80 1228.80" class="icon" version="1.1" xmlns="http://www.w3.org/2000/svg" fill="#ffffff" stroke="#ffffff" transform="matrix(-1, 0, 0, 1, 0, 0)rotate(0)" stroke-width="0.01024">
<g id="SVGRepo_bgCarrier" stroke-width="0" transform="translate(0,0), scale(1)">
<path transform="translate(-102.4, -102.4), scale(76.8)" fill="#7ed0ec" d="M9.166.33a2.25 2.25 0 00-2.332 0l-5.25 3.182A2.25 2.25 0 00.5 5.436v5.128a2.25 2.25 0 001.084 1.924l5.25 3.182a2.25 2.25 0 002.332 0l5.25-3.182a2.25 2.25 0 001.084-1.924V5.436a2.25 2.25 0 00-1.084-1.924L9.166.33z" strokewidth="0"/>
</g>
<g id="SVGRepo_tracerCarrier" stroke-linecap="round" stroke-linejoin="round"/>
<g id="SVGRepo_iconCarrier">
<path d="M896 192H128c-35.3 0-64 28.7-64 64v512c0 35.3 28.7 64 64 64h576.6l191.6 127.7L896 832c35.3 0 64-28.7 64-64V256c0-35.3-28.7-64-64-64z" fill="#000000"/>
<path d="M640 512c0-125.4-51.5-238.7-134.5-320H128c-35.3 0-64 28.7-64 64v512c0 35.3 28.7 64 64 64h377.5c83-81.3 134.5-194.6 134.5-320z" fill="#000000"/>
<path d="M256 512m-64 0a64 64 0 1 0 128 0 64 64 0 1 0-128 0Z" fill="#ffffff"/>
<path d="M512 512m-64 0a64 64 0 1 0 128 0 64 64 0 1 0-128 0Z" fill="#ffffff"/>
<path d="M768 512m-64 0a64 64 0 1 0 128 0 64 64 0 1 0-128 0Z" fill="#ffffff"/>
</g>
</svg>